<svg xmlns="http://www.w3.org/2000/svg" viewBox="0 0 200 200"><defs><style>.a{fill:#0052d9;}</style></defs><path class="a" d="M149.09,168.8l0,.07L149,169v0l0,0a.88.88,0,0,0-.09.21l0,.1v.08l0,.08v0l0,0,0,.09,0,.07v0s0,0,0,.07v.08a.09.09,0,0,0,0,.07v.22a.51.51,0,0,0,0,.09l0,.12v0a.62.62,0,0,1,0,.12v.11l0,.1,0,.1.05.09.06.1.07.09.07.08,0,0,.08.08.05.07.13.12s0,0,0,0a1.31,1.31,0,0,0,.16.14l.21.09.08,0,.07,0h.08l.17,0H151l0,0h0a.85.85,0,0,1,.17-.06l.12,0,.11,0h0l.05,0,.05,0,.1,0,.1-.06.07,0,0,0,0,0,.17-.12.17-.17a1.14,1.14,0,0,0,.15-.18l.07-.07,0-.06.07-.06a.31.31,0,0,1,0-.09l0-.06,0-.07.06-.11a.29.29,0,0,0,.05-.1v0a.24.24,0,0,0,0-.07v0l0-.05a.25.25,0,0,0,0-.08l0,0c0-.08,0-.15,0-.19s0-.2,0-.24v0a.5.5,0,0,0,0-.21v-.09l0-.1v-.16l0-.1h0v0a1.67,1.67,0,0,0-.06-.2l-.05-.1-.06-.09v0l-.14-.13v0l-.07-.08-.07-.08-.17-.15L152,168l-.08,0-.1-.05h0a.38.38,0,0,0-.16-.06h-.06l-.21-.06s0,0,0,0l-.07,0h-.41l-.08,0-.09,0h0l0,0-.07,0-.08,0h-.08l-.07,0h-.06l-.11.05-.06,0-.05,0h0l-.19.1a.46.46,0,0,1-.12.09l-.08.07h0a1,1,0,0,0-.18.16l0,.05,0,.05,0,0,0,.06-.15.14S149.09,168.79,149.09,168.8Z"/><path class="a" d="M100.32,101.35v63c0,.58,0,1.17,0,1.74s-.26.9-.9.85c-2.72-.2-5.46-.2-8.16-.58-16.73-2.32-30.82-9.74-41.8-22.56-14.28-16.68-19.27-36-15-57.55A63.92,63.92,0,0,1,56,49.54c15.61-13.48,33.81-18.77,54.19-15.79C126,36.06,139.34,43.48,150,55.44A65.12,65.12,0,0,1,166.43,91a65.81,65.81,0,0,1-7.73,41.21,1,1,0,0,0,.23,1.39q8.06,8,16.08,16.05c1.75,1.76,3.49,3.54,5.27,5.34a2.16,2.16,0,0,0,.3-.26l.29-.42c14.33-21.67,19.49-45.4,15.13-71-4.3-25.2-16.84-45.75-37.26-61.12C136,5.13,110.23-.86,82.2,4.21,57.64,8.66,37.63,21.08,22.54,40.93,5.86,62.87-.51,87.79,3.81,115c4.81,30.34,20.79,53.62,47.24,69.14,24.76,14.52,51.21,17,78.67,8.69a1.18,1.18,0,0,0,1-1.35c0-5.53,0-11.05,0-16.58v-1.37c.41.37.62.54.81.73q11.21,11.2,22.44,22.41a2.5,2.5,0,0,0,1.56.71q20.41.06,40.84,0c.35,0,.7,0,.84,0l-96.88-96.89Zm39.37,61s0,0,0,0v.07a1,1,0,0,0,0,.12l0,.09-.06.09a.53.53,0,0,1-.09.11l0,0-.14.1h0l0,0h0a.26.26,0,0,1-.1.07.53.53,0,0,1-.17,0h0l-.19,0-.19,0-.18-.06-.06,0a.4.4,0,0,1-.12-.07l-.15-.12-.11-.15a1.21,1.21,0,0,1-.1-.16s0,0,0-.06l0-.07,0-.06v-.06l0-.07v-.06a.72.72,0,0,1,0-.19.58.58,0,0,1,0-.17h0a.09.09,0,0,0,0-.06.87.87,0,0,1,.05-.12l.12-.15.11-.07,0,0,0,0h0l0,0,.06,0,.06,0h.06l.06,0h.25l.14,0H139a.22.22,0,0,1,.12,0l.06,0,.05,0,0,0a.72.72,0,0,1,.14.13l.15.14,0,.06,0,0,0,.07,0,0v0a.63.63,0,0,1,0,.14l0,.09v.1Zm20.87,20.87v.09a1,1,0,0,0,0,.12l0,.09-.06.09-.09.11,0,0-.13.1h0l0,0-.1.07a.61.61,0,0,1-.17,0h-.21l-.19,0-.18-.05-.06,0-.13-.06-.14-.13-.12-.15-.09-.15a.64.64,0,0,1,0-.07v-.06l0-.06v-.07l0-.06s0,0,0-.06a.45.45,0,0,1,0-.19.51.51,0,0,1,.05-.17h0a.07.07,0,0,0,0-.06.64.64,0,0,1,.06-.12l.12-.15.11-.08h0l0,0h0l0,0,.06,0,.05,0,.07,0h.14a.52.52,0,0,1,.17,0,.36.36,0,0,1,.14,0h.11a.17.17,0,0,1,.12,0l.07,0,0,0,.06,0a.72.72,0,0,1,.14.13l.14.14,0,.05v.05l0,.07,0,0v0c0,.06,0,.11,0,.13v.1l0,.09Zm9.75,4,.11-.1.13-.15.32-.32,0,0,.49-.49a.92.92,0,0,1,.14-.16l.21-.21.08-.06a.4.4,0,0,1,.17-.09.22.22,0,0,1,.15,0,.21.21,0,0,1,.08,0l.05,0,0,0,.1.07.11.11a.66.66,0,0,1,.15.28,1,1,0,0,0,0,.15.37.37,0,0,1,0,.11v.29a.38.38,0,0,1,0,.1v.45a.28.28,0,0,1,0,.09v0a.41.41,0,0,0,0,.12v.3a1.19,1.19,0,0,1,0,.19v.08a.22.22,0,0,0,0,.1v.19a2.26,2.26,0,0,0,0,.26v.57a1.5,1.5,0,0,1,0,.22.11.11,0,0,1,0,.06s0,.06,0,.07l0,.21v.27a.28.28,0,0,0,0,.09v.47a.45.45,0,0,0,0,.11v.17a.22.22,0,0,0,0,.1v.18a1.22,1.22,0,0,1,0,.21.15.15,0,0,0,0,.07v0a.11.11,0,0,0,.08.11.12.12,0,0,0,.14,0l0,0a.23.23,0,0,0,.05-.07l.06-.05a.86.86,0,0,1,.07-.1l.1-.08.05,0a.21.21,0,0,0,.08-.06l.07-.08a1.25,1.25,0,0,1,.12-.12.6.6,0,0,1,.13-.12l.15-.15.12-.13a.56.56,0,0,1,.13-.12l.68-.68.05-.07.06-.05a.86.86,0,0,1,.07-.1l.13-.11.41-.41a.22.22,0,0,1,.22,0,.81.81,0,0,1,.22.17l.09.11.63.63.1.08a.76.76,0,0,1,.13.16l0,.08a.28.28,0,0,1,0,.09.39.39,0,0,1-.13.23l-.16.17-.52.52a.49.49,0,0,1-.11.13l-.14.12-.08.08a.91.91,0,0,1-.12.11l-.15.15-.11.13-.08.07a.49.49,0,0,1-.11.13l-.13.11-.73.73a.92.92,0,0,1-.12.16l-.11.09,0,0,0,0,0,0s0,0,0,.07,0,0-.05.06l-.17.17-.07.05-.06,0a.05.05,0,0,0,0,0l-.06.08-.08.1-.16.13-.11.11a.75.75,0,0,1-.13.15.81.81,0,0,1-.1.09c-.05,0-.07,0-.07.06l-.05,0,0,0,0,.07-.09.1-.07.07-.05,0-.28.28-.13.12-.12.12s0,0,0,0l0,0,0,.06-.18.17-.05.07a.44.44,0,0,1-.15.1.47.47,0,0,1-.4-.06l-.11-.08a.47.47,0,0,1-.15-.13.61.61,0,0,1-.18-.42V195s0-.06,0-.07v0a.49.49,0,0,1,0-.12v-.05h0v0a.67.67,0,0,1,0-.18v-.18a.2.2,0,0,1,0-.07.49.49,0,0,1,0-.12.62.62,0,0,1,0-.24v0h0v-.07a.62.62,0,0,1,0-.21.77.77,0,0,1,0-.18v0a.11.11,0,0,1,0-.05s0,0,0-.06v0a.58.58,0,0,1,0-.15v-.24a.09.09,0,0,1,0,0,2.18,2.18,0,0,1,0-.25v-.13a.92.92,0,0,1,0-.19,1.11,1.11,0,0,1,0-.19.23.23,0,0,1,0-.07v-.07a1.64,1.64,0,0,1,0-.22h0a.11.11,0,0,1,0-.06v-.22s0-.08,0-.12v-.06a.19.19,0,0,1,0-.08,2.35,2.35,0,0,1,0-.28v-.09l0-.18v-.43s0-.05,0-.11a.14.14,0,0,0-.08-.12.12.12,0,0,0-.13,0c-.12.11-.26.24-.4.39l-.47.47-.06,0-.13.13a.64.64,0,0,1-.13.15.7.7,0,0,1-.16.14l-.12.12,0,.06-.15.15-.05,0-.16.15,0,.06-.14.14-.06,0-.22.22c-.18.18-.33.25-.45.22l-.2-.15-.09-.12-.09-.08a.7.7,0,0,1-.14-.16l-.29-.29-.12-.1-.1-.1a.57.57,0,0,1-.14-.17c0-.13,0-.29.24-.49l.19-.19.23-.23,0,0,1.86-1.85,0,0,.24-.25,0,0,.1-.1,0,0,.11-.11a.64.64,0,0,1,.15-.13l.11-.11a.79.79,0,0,1,.14-.15l.19-.2Zm-7.26-4.63a2.41,2.41,0,0,1,.24-.26l.24-.21.11-.1a.71.71,0,0,1,.13-.12l0,0,.18-.1.09,0a.57.57,0,0,1,.13-.08l.11-.07h.06l0,0,.05,0,.08-.05.08-.06h0l.14-.06.14,0,.25-.06h.05l.3-.08.17,0h.15l.3,0,.16,0h.29l.09,0H167a.62.62,0,0,1,.16,0h.17l.15,0a2,2,0,0,1,.29.1l.22.09H168l.17.09.14.08.06.05.06,0,.12.07h0l.08.07a.61.61,0,0,1,.14.11l.12.1.12.11.22.24,0,.07,0,.06.07.09v0l0,0v0l.13.19.07.12.07.13a.93.93,0,0,1,.05.1l0,.09,0,.07v0l0,0,0,.07a1,1,0,0,1,.07.21,1.85,1.85,0,0,1,.06.25l0,.08v0l0,.13,0,.17v0h0a.31.31,0,0,1,0,.08.58.58,0,0,1,0,.1.76.76,0,0,1,0,.15V185a.8.8,0,0,0,0,.11v.08a.54.54,0,0,1-.17.42l0,0a.49.49,0,0,1-.28.13.86.86,0,0,1-.32,0h-.2a.7.7,0,0,1-.21,0h0a.69.69,0,0,1-.5-.25.76.76,0,0,1-.18-.51v-.24a.08.08,0,0,1,0-.05s0,0,0-.06l0-.09v-.11a.13.13,0,0,0,0-.08.25.25,0,0,0,0-.07l0-.09v0l0,0,0-.09,0-.08,0-.06h0v0l0,0,0-.05v0l0,0,0,0,0,0-.06,0-.06-.05-.07-.09-.09-.09-.1,0,0,0,0,0a.16.16,0,0,1-.1,0l-.07,0-.06,0,0,0,0,0,0,0h-.09l-.16,0h0l-.11,0h-.37l-.11,0h-.14l-.1,0-.06,0h-.06l-.17,0h-.08l-.18.09h0l-.08.06-.13.09,0,0a1.09,1.09,0,0,0-.17.13h0l-.25.25a.28.28,0,0,0-.09.1.36.36,0,0,0-.08.09l0,0,0,.05h0l0,.05,0,0-.07.12s0,0,0,.1l0,.07,0,.06-.07.21v0h0l0,.12s0,.06,0,.1v0s0,0,0,0v.4a1.78,1.78,0,0,0,0,.2v.23a.66.66,0,0,1,0,.13l0,.05v0h0v0l.05.06,0,0,0,0,0,.05,0,.05a.45.45,0,0,0,.07.09.83.83,0,0,0,.15.18l0,0,0,0,.07.06.08.06.05,0,0,0,.11.06.11.06h.07l.12,0,.19.05h.11a.32.32,0,0,0,.16,0,.79.79,0,0,0,.26,0h.15a.29.29,0,0,0,.14,0h.36a.6.6,0,0,1,.18.06h0a.79.79,0,0,1,.18.22c0,.07.05.16.07.26l0,0,0,.07,0,.11a.31.31,0,0,1,0,.08v0h0v.06a.85.85,0,0,1-.05.64.86.86,0,0,1-.54.28h-.05l-.13,0-.13,0-.19,0h-.51l-.32-.05-.15,0-.18,0-.29-.09-.26-.09a1.8,1.8,0,0,1-.28-.11l-.11-.05,0,0,0,0,0,0h0l0,0,0,0-.05,0-.08,0-.07,0,0,0-.06,0-.06-.05,0,0,0,0-.06,0-.19-.16a2,2,0,0,1-.16-.2l0,0,0,0-.18-.24-.09-.13-.1-.12-.08-.15-.08-.14q0-.14-.09-.24l0,0v-.05l0-.08,0-.07,0-.11v0h0l0-.11-.05-.16v0s0-.06,0-.14l0-.12v0h0v-.75l0-.15v0a2,2,0,0,1,.06-.3h0v-.07l0-.07a.71.71,0,0,1,0-.17l.07-.28v0l.06-.14.06-.15,0-.11.06-.1a.21.21,0,0,0,0-.07h0l0-.05c0-.08.09-.16.14-.24l0,0v0l0,0,0-.05.07-.11.16-.18Zm-7.87-10.08.4-.4.07-.09.2-.2a.79.79,0,0,1,.12-.14l.13-.11.6-.6s.05,0,.11-.11l.07-.09.05,0c.17-.17.38-.16.63,0a.82.82,0,0,1,.4.68v0l0,.25v0l0,.19,0,.09,0,.28,0,.29v.14a.3.3,0,0,1,0,.13.49.49,0,0,1,0,.12l0,0v.11l0,.3c0,.12,0,.21,0,.27l0,.3a2,2,0,0,0,0,.24v.1s0,.08,0,.19a.37.37,0,0,1,0,.11v.07l0,.11a1.47,1.47,0,0,0,0,.16l0,.11v0a2,2,0,0,0,0,.24v0l0,.14v.12h0l0,.12v.06s0,.06,0,.09a.37.37,0,0,0,0,.11q0,.24.21.21l.29,0h.55l.28,0,.07,0h0l0,0h.11l.28-.05h.25l.3,0h.14l.11,0h0l.26,0,.08,0h.12l.07,0a.67.67,0,0,1,.19,0h.1l.08,0,.18,0,.13,0h.25l0,0h.12l.13,0h.14l.29,0a.63.63,0,0,1,.68.37.5.5,0,0,1,0,.66l-.07.08s-.06.08-.07.08a.61.61,0,0,1-.12.16l-.07.07-.06,0-.34.34,0,.06-.14.14-.05,0-.16.15-.05,0-.07.07-.14.12-.11.12-.13.15-.07.08-.06,0-.15.15,0,0-.15.15s0,0,0,.05l-.07.07a.64.64,0,0,1-.17.13l-.29.3a.87.87,0,0,1-.27.27l-.11.11a1,1,0,0,1-.12.15l-.21.21a.79.79,0,0,1-.15.12l-.12.12,0,.05-.34.35s0,0,0,.05l-.16.16-.12.1-.25.26-.06,0-.07.07-.09.1-.19.21a.74.74,0,0,1-.45.27.38.38,0,0,1-.25-.11l-.1-.08,0,0-.68-.67-.08-.12a.37.37,0,0,1,.05-.55l.3-.31a.47.47,0,0,0,.11-.1.12.12,0,0,0,.05-.06l.06-.06.08-.09.09-.1.12-.1a1.35,1.35,0,0,1,.11-.09l.39-.4a.21.21,0,0,0,.08-.06.18.18,0,0,0,.05-.07l.06-.05a.24.24,0,0,1,.08-.09l.11-.12.09-.07a.36.36,0,0,0,.07-.09l.24-.24.08-.06v0a.09.09,0,0,0,0-.1.08.08,0,0,0-.09-.06h0a.34.34,0,0,1-.17,0s0,0-.09,0h-.3l0,0-.22,0a.52.52,0,0,1-.21,0h-.07l-.25,0h0l-.11,0-.13,0h0l-.27,0h-.1l-.27.07h-.28a.7.7,0,0,1-.37-.07.61.61,0,0,1-.17-.15.72.72,0,0,1-.11-.32,1.34,1.34,0,0,1,0-.21l0-.22a.06.06,0,0,0,0-.07v0l0-.26a.31.31,0,0,1,0-.08,1.15,1.15,0,0,1,0-.19c0-.08,0-.13,0-.18a.38.38,0,0,0,0-.08l0-.26h0l0-.11v-.07a.19.19,0,0,0,0-.08v-.3a.15.15,0,0,1,0-.07.35.35,0,0,1,0-.06l0-.12h0a.11.11,0,0,0,0-.05v-.21s0-.08,0-.09a.09.09,0,0,0-.11,0l-.27.27,0,.06-.14.14,0,.06-.08.07a.61.61,0,0,1-.16.13l-.13.13,0,.05-.14.14-.06.05-.15.15-.09.1-.11.13-.09.1-.15.11-.06.06-.09.1-.23.26a.75.75,0,0,1-.41.25.38.38,0,0,1-.23-.1l-.1-.08-.16-.17a.32.32,0,0,1-.08-.09l-.06-.08-.22-.22-.09-.07-.08-.08,0,0-.1-.1a.35.35,0,0,1-.11-.27.31.31,0,0,1,.09-.22l.08-.08.08-.06.12-.12c0-.06.07-.09.08-.09l.07-.08.08-.09a.36.36,0,0,1,.09-.08l.06-.06.06,0,.21-.21.11-.09.08-.08.07-.09.12-.12a.23.23,0,0,0,0-.07l.06,0a.86.86,0,0,1,.07-.1l.14-.12.55-.55.13-.14.2-.2.12-.11.08-.08.1-.08.06-.06a.13.13,0,0,0,.06,0,.24.24,0,0,0,.07-.09l.12-.11a.36.36,0,0,0,.07-.09l.25-.25Zm-5.75-6.34.1,0,.1,0,.05,0h0l.09,0,.09,0,.09,0h0l.08,0h0l0,0,.09,0h.14l.11,0H151l.26,0,.26,0,0,0a1.43,1.43,0,0,1,.29,0h0l.15,0,.11,0h0l.11,0,.08,0,.08,0h0l.06,0,.23.1.13.06.13.06v0h0l.12.1.12.09.09.07.08.06,0,0,0,0,.14.12.12.12,0,0,0,0,.06,0a.47.47,0,0,1,.1.1l.09.12.08.11h0v0l.08.12.08.13.06.11,0,.11,0,0v0a1.74,1.74,0,0,1,.11.25s0,.05,0,.05v0l0,.05,0,.06,0,.15a.58.58,0,0,1,.05.14s0,.08,0,.12v0a2.48,2.48,0,0,1,0,.33v.08l0,.23v.07h0v.36a.88.88,0,0,1,0,.17,1,1,0,0,1,0,.21.22.22,0,0,1,0,.08v0l-.08.31-.05.14a.52.52,0,0,1-.06.15,1.15,1.15,0,0,1-.11.31s0,0,0,0l0,.06,0,.08,0,.09h0l0,.1-.1.19h0a1,1,0,0,1-.14.17l-.06.06v0h0l0,0-.05.05-.1.14-.23.25-.09.09-.06.07-.07.07h0a.7.7,0,0,1-.21.14l0,0,0,0a2,2,0,0,1-.26.18l-.14.08-.15.09s-.06,0-.07,0l-.11.05-.11.06a.9.9,0,0,1-.25.08l-.05,0-.32.09,0,0h0a.34.34,0,0,1-.1,0l-.12,0h-.07l-.08,0-.16,0h-.21l-.08,0h0l-.31,0h-.28a1.52,1.52,0,0,1-.32-.06l-.28,0h0l-.3-.09-.06,0a1.22,1.22,0,0,1-.24-.1l-.12-.06-.12,0h0l0,0-.14-.1a.29.29,0,0,0-.1-.06l-.19-.16,0,0,0,0a1.9,1.9,0,0,1-.23-.2l-.11-.11-.08-.09,0,0-.05-.06,0-.06,0-.05,0,0,0,0-.07-.08-.1-.15h0v0a.23.23,0,0,1,0-.1l0-.08,0-.09h0a.15.15,0,0,0,0-.07l-.05-.09,0-.11c0-.11-.07-.18-.08-.22l0-.07v-.12l0-.07,0-.12v0l0-.29a.07.07,0,0,1,0-.05l0-.12s0-.09,0-.14a1,1,0,0,0,0-.17s0-.08,0-.14v-.33l0-.09v-.09l0-.1v0l0-.07v-.07a.24.24,0,0,1,0-.15,1.09,1.09,0,0,1,.07-.24l0,0a1.42,1.42,0,0,1,.13-.3,2.29,2.29,0,0,1,.14-.3l.16-.29h0l.2-.28,0-.05,0,0a.73.73,0,0,0,.11-.14l0,0,.07-.09.06-.06.07-.08.17-.14.06-.05,0,0a2,2,0,0,1,.26-.19l0,0,0,0,0,0,.11-.08.14-.08.08,0,.09-.06.08,0,.09-.06A.43.43,0,0,1,149.43,166.14Zm-6.76-4.92.1-.1.13-.12,0,0,.17-.09.09,0,.13-.08.11-.06h.06l0,0,.05,0,.08,0,.09-.05,0,0,.14,0,.14-.05.25-.07h0l.3-.08.18,0H145l.3,0,.15,0h.3l.08,0h.24l.17,0h.16l.15,0a1.15,1.15,0,0,1,.29.11l.22.08h0l0,0,.17.08.14.08.06.05.06,0,.12.07v0h0l.08.07.14.11.12.1.12.11.22.25.05.06,0,.06.07.09v0l0,0,0,0,.12.19.07.12.08.14a.39.39,0,0,1,0,.09l0,.1,0,.07v0l0,.07a1.94,1.94,0,0,1,.07.22l0,.24,0,.08v0l0,.14,0,.16v0h0a.28.28,0,0,1,0,.08.65.65,0,0,1,0,.11.66.66,0,0,1,0,.15v.26a.58.58,0,0,1,0,.1v.09a.57.57,0,0,1-.16.42l0,0a.64.64,0,0,1-.29.12,1.08,1.08,0,0,1-.31,0h-.21a.48.48,0,0,1-.21,0h0a.74.74,0,0,1-.5-.24.8.8,0,0,1-.18-.52v-.15a0,0,0,0,0,0,0v-.06a0,0,0,0,1,0-.05.14.14,0,0,1,0-.06l0-.09,0-.11a.13.13,0,0,0,0-.08l0-.07,0-.09v0l0,0,0-.1,0-.08s0,0,0,0h0v0l0-.05,0-.06,0,0,0,0,0,0,0,0-.05,0-.07-.05-.07-.09-.08-.08-.11-.06,0,0,0,0-.1,0-.06,0-.07,0,0,0,0,0-.05,0H146l-.17,0h0l-.11,0h-.07l-.06,0h-.23l-.11,0h-.15l-.1,0,0,0-.07,0-.17,0h-.07l-.18.08h0l-.08.06-.13.09,0,0a.83.83,0,0,0-.18.13h0l-.25.25-.09.1-.08.09,0,.05,0,0h0l0,0,0,0-.07.12s0,0,0,.1v.07l0,.06c0,.08-.05.15-.07.21v0h0l0,.12s0,.06,0,.1v0s0,0,0,0v.4a2.06,2.06,0,0,0,0,.21v0s0,0,0,0V165a.49.49,0,0,1,0,.12l0,.05v0h0v0l0,.07,0,0,0,0,0,0,0,.05.06.09a1.53,1.53,0,0,0,.15.19l.05,0,0,0s0,0,.07.05a.21.21,0,0,1,.08.06l.05,0,0,0,.12.06.1.06h.08l.12,0,.19.05h.1l.16,0a1.23,1.23,0,0,0,.26,0h.34a.81.81,0,0,1,.31,0,.44.44,0,0,1,.18,0h0a.84.84,0,0,1,.18.23l.08.25v.05l0,.07s0,.06,0,.1a.29.29,0,0,1,0,.09v0h0v.07a.78.78,0,0,1-.05.63.81.81,0,0,1-.53.28h-.06l-.13,0-.13,0h-.7l-.31-.05-.16,0-.17,0-.3-.09-.26-.09a1.35,1.35,0,0,1-.28-.11l-.1,0,0,0,0,0,0,0h0l0,0,0,0-.05,0-.07,0-.07,0,0,0-.07-.05-.05-.05-.05,0,0,0-.07,0-.19-.16a2.3,2.3,0,0,1-.16-.2l0,0,0,0-.17-.24-.1-.13-.09-.12-.08-.14-.08-.15-.1-.23v0l0,0h0l0-.09,0-.07,0-.11v0h0l0-.12c0-.06,0-.12,0-.16v0s0-.07,0-.15v-.15h0v-.74l0-.16v0a1.59,1.59,0,0,1,.06-.3v0l0-.06v-.08c0-.06,0-.12,0-.17l.07-.27v0l.06-.14.07-.14,0-.11.06-.11s0,0,0-.07h0l0-.06.14-.24,0,0,0,0,0,0,0-.05.08-.11.15-.18,0-.06.24-.25Zm-5.2-9.18.14-.14.21-.23.19-.18a.29.29,0,0,1,.14-.08c.06,0,.14,0,.24.13l.14.12a.31.31,0,0,0,.09.11l.15.15,0,.07.05.06.19.2a.56.56,0,0,1,.12.13l.07.07.07.05.06.05.18.18,0,0,0,0s0,0,0,.07l.06,0,.06,0,.56.57,0,.06a.18.18,0,0,0,.05.07l.2.2s0,0,.06,0l.06.05.09.09.12.13.15.15.13.12a.44.44,0,0,1,.11.13l.54.53.07.06.14.13a.41.41,0,0,1,.13.31,3.06,3.06,0,0,1-.4.44l-.07.06a.58.58,0,0,1-.1.12l-.21.21-.05.06-.13.14c-.11.11-.2.17-.26.16a.43.43,0,0,1-.28-.16l-.12-.12-.09-.11-.3-.29-.12-.11-.05,0,0-.05-.06,0s0,0,0-.06l-.19-.2-.06,0-.06-.05-.09-.08-.38-.38a.49.49,0,0,1-.11-.13l-.14-.14a.54.54,0,0,1-.14-.12l-.07-.07a.46.46,0,0,1-.12-.11.56.56,0,0,1-.12-.13.24.24,0,0,0-.21-.1.28.28,0,0,0-.2.08l-.15.14s0,.05,0,.07,0,0,0,.06l-.09.09-.12.11c-.12.11-.18.21-.17.29a.18.18,0,0,0,.07.09l.06,0,0,0,.43.43a.36.36,0,0,0,.07.09l0,0,0,0,.07,0,.17.17,0,.07,0,0,0,0a.23.23,0,0,0,.08.07l.52.52.09.07.13.13.35.4a.19.19,0,0,1,0,.19,2.26,2.26,0,0,1-.32.35l-.12.13-.06,0-.23.23-.16.17-.08.08-.06.08c-.1.1-.18.13-.24.11a1.26,1.26,0,0,1-.24-.2l-.1-.12-.53-.52a.61.61,0,0,1-.12-.16l-.31-.31-.16-.12-.44-.44,0,0-.3-.3a.22.22,0,0,0-.37,0l-.36.37-.13.11-.12.12a.15.15,0,0,0,0,.1.15.15,0,0,0,0,.1l.11.1.08.09.07.05.06.06.14.13.65.64a.19.19,0,0,0,0,.06l.31.32a.64.64,0,0,1,.15.13l.46.46,0,0,.37.37c.11.13.15.22.13.28a.5.5,0,0,1-.15.2l-.12.11,0,0-.09.08s-.05.06-.05.08l-.22.22s0,0-.07,0l-.22.23a.53.53,0,0,1-.25.14h0q-.12,0-.33-.18l-.56-.57,0-.06-.15-.13-.14-.15-.26-.27a.64.64,0,0,1-.13-.15l-.38-.37-.08-.07-.43-.43,0,0-.18-.18a.79.79,0,0,1-.15-.14l-.45-.45a.64.64,0,0,1-.15-.13l-.14-.15-.15-.16-.05,0-.12-.11a.49.49,0,0,1-.16-.2.33.33,0,0,1,.1-.22l.41-.41a.54.54,0,0,1,.12-.14l.07-.07a.56.56,0,0,1,.12-.13.24.24,0,0,1,.09-.08l.06-.06.06,0a.23.23,0,0,0,.05-.07l0-.05.09-.11.09-.07.06-.06s0,0,.06,0l.13-.11.28-.27,0-.05a.65.65,0,0,1,.15-.18.52.52,0,0,1,.11-.1l.07-.05.05,0,.07-.07a.56.56,0,0,1,.12-.13.5.5,0,0,1,.12-.11l.15-.15.12-.14.09-.08a.73.73,0,0,1,.11-.13l.08-.08.11-.12a.52.52,0,0,1,.11-.1l.07-.05h0l.42-.42s.05,0,.05-.06l.06-.06a.35.35,0,0,1,.07-.09.39.39,0,0,1,.1-.08l.05-.06a.18.18,0,0,0,.07,0l.27-.27a.72.72,0,0,1,.13-.14l.28-.28A.44.44,0,0,1,137.47,152Zm-5.14-5.48,0,0,.09-.09.11-.1a.44.44,0,0,1,.29-.11.53.53,0,0,1,.3.12l.24.24a.83.83,0,0,1,.12.16l.12.12a.66.66,0,0,1,.16.12l.2.2a.66.66,0,0,1,.12.16l.3.3a.6.6,0,0,1,.18.15l.21.2.13.15.54.54.06,0,.15.15,0,0,.17.17.06,0,.28.28.08.1a.21.21,0,0,1,0,.06l.33.32.06.05.09.08c.26.25.38.44.38.56a.48.48,0,0,1-.13.27l-.11.11-.06,0-.24.24-.13.11-.08.08-.05.07-.13.13a.41.41,0,0,1-.31.14c-.06,0-.22-.13-.49-.4l-.12-.13,0,0-.45-.45-.07-.05a.48.48,0,0,0-.69,0l0,0-.16.17a.64.64,0,0,1-.15.13l0,0,0,0,0,0,0,0a.79.79,0,0,1-.14.15l-.15.14,0,0,0,0-.2.19v0l0,0-.14.15-.15.15a.1.1,0,0,0-.05,0l-.15.15-.06,0a.1.1,0,0,0,0,0l-.29.29-.06,0s0,0,0,0l0,0-.14.15-.2.2-.15.14,0,0,0,0,0,.05-.35.35,0,0-.15.15a.79.79,0,0,1-.15.14l0,0,0,0,0,0,0,0a.7.7,0,0,1-.14.16l0,.05,0,0,0,.06-.11.12a.44.44,0,0,1-.29.13.45.45,0,0,1-.31-.15,1,1,0,0,1-.1-.14l0-.05,0-.06a.05.05,0,0,1,0,0l-.07-.05-.18-.17-.12-.11,0,0-.06,0-.13-.12-.14-.14a.31.31,0,0,1-.07-.16.41.41,0,0,1,.15-.28l.48-.48.08-.06.19-.19.13-.15.79-.79.08-.06L131,151l.06-.08.08-.06.19-.19.13-.15a.64.64,0,0,1,.15-.13l.11-.11a1.07,1.07,0,0,1,.13-.15l.6-.59a.79.79,0,0,1,.15-.14l.15-.15a.38.38,0,0,0,0-.56l0,0-.12-.12,0,0-.11-.12-.15-.16-.43-.43-.11-.1a.32.32,0,0,1-.1-.22.42.42,0,0,1,.12-.3l.12-.14Zm-7.27-3.92.35-.35a.91.91,0,0,1,.11-.12l.2-.2a.34.34,0,0,1,.13-.11l.15-.15a.44.44,0,0,1,.11-.13l.12-.11.33-.32a.61.61,0,0,1,.12-.16l.11-.1,0-.07.11-.11a.4.4,0,0,1,.26-.14h0a.35.35,0,0,1,.25.12l.1.12.09.1,0,.05.09.1a.49.49,0,0,1,.13.11l.23.23.05,0,0,0,.12.1a.34.34,0,0,1,.14.25v.08a.38.38,0,0,1-.14.24l-.12.1-.1.09-.06.06-.07.08-.45.45-.08.07a.18.18,0,0,0,0,.07s0,0,0,.06l-.17.17-.07,0-.06.05a.23.23,0,0,0-.07.08l-.2.2a.44.44,0,0,1-.11.13l-.13.12-.16.15a.83.83,0,0,1-.11.13l-.08.08a.89.89,0,0,1-.12.14l-.12.11-.37.36-.06,0s0,0-.06,0l-.18.18a.35.35,0,0,1-.09.1l-.14.19-.12.21,0,.09-.06.09a.6.6,0,0,0-.08.19l0,.1a1.34,1.34,0,0,0,0,.19.43.43,0,0,0,0,.19v0l0,.07,0,.1a.83.83,0,0,0,.09.2l0,.08a1.15,1.15,0,0,0,.07.11l.07.07.06,0,.06.06.17.15h0l.08.07.1.06h0a.43.43,0,0,0,.14.07h0l0,0,.06,0h0l0,0h.18l.19,0,.1,0,.07,0,0,0,.15-.07h0l0,0,0,0,.08-.07h0l0,0,.11-.09.14-.11.06,0,.12-.12,0-.06a.48.48,0,0,1,.16-.13l.18-.18.06-.08.13-.13.06-.08a.71.71,0,0,1,.09-.07l.12-.12.09-.08.25-.25.07-.08.19-.19.08-.07.58-.57a.48.48,0,0,1,.13-.16.27.27,0,0,1,.08-.07l.6-.6a.35.35,0,0,1,.53,0l.11.12.21.22a.49.49,0,0,1,.13.11l.06.06.12.11.25.24a.43.43,0,0,1,.13.3.5.5,0,0,1-.11.27l-.21.21-.07.05-.06.08-.22.22-.06,0-.06,0-.19.2a.36.36,0,0,0-.07.09l-.2.2-.07,0,0,0,0,0a.05.05,0,0,0,0,0l0,0,0,.07-.21.2-.09.07-.06.08-.2.21-.07,0,0,0,0,0a.08.08,0,0,0,0,0l-.15.18a1.77,1.77,0,0,1-.18.15l0,0-.19.19s0,0,0,0,0,0,0,.06l-.22.22,0,0,0,0-.1.11-.09.08a1.81,1.81,0,0,1-.23.2,1.46,1.46,0,0,1-.24.17.66.66,0,0,1-.2.11l0,0h0l-.12.07-.11.06v0h0l-.08,0-.07,0,0,0-.05,0h0l0,0h0l-.05,0-.12.05a.86.86,0,0,1-.23.06h0l-.3.08a2.39,2.39,0,0,1-.31,0,.82.82,0,0,1-.27,0h-.19l-.15,0h-.06l-.07,0-.1,0-.12,0a1.88,1.88,0,0,1-.3-.09h0a1.42,1.42,0,0,1-.24-.11l0,0-.12-.09-.09-.06-.11-.06-.12-.07,0,0a1.44,1.44,0,0,1-.21-.18l-.11-.08-.19-.2-.1-.11-.1-.12a.75.75,0,0,1-.07-.12h0l0,0-.07-.08-.08-.1-.06-.13-.05-.1s0,0,0,0-.09-.18-.13-.27a1.88,1.88,0,0,1-.12-.31,1.59,1.59,0,0,1-.06-.3h0v-.64l0-.12,0-.12,0-.06v-.19l0-.11,0,0,0-.06v-.06l0-.07v-.06h0a2.06,2.06,0,0,0,.1-.25l0,0v0l0,0,0-.06.06-.15.06-.11.07-.09,0,0v0h0l.09-.13a.29.29,0,0,0,.06-.1l0,0,0,0,0,0a1.24,1.24,0,0,1,.14-.18l0,0,0,0a1,1,0,0,1,.15-.18l.57-.57.06-.08.08-.06.32-.32ZM119,136.28l.08-.06.08,0,.1-.06.12,0,.11,0,.09,0,.05,0h0l.09,0,.1,0,.09,0h0l.07,0h.09l.1,0h.24a.23.23,0,0,1,.11,0h.61a1,1,0,0,1,.26,0h.05a1.33,1.33,0,0,1,.28,0h0l.15,0,.11,0h0l.11,0,.08,0,.08,0h0l0,0a1,1,0,0,1,.23.1l.14.06.12.06,0,0h0l.13.09.12.09.08.07.08.06,0,0,0,0,.13.12.13.13h0l0,0,0,0,.11.1.08.12.08.11,0,0v0l.08.13.08.12.07.12,0,.11h0v0a2.44,2.44,0,0,1,.1.24l0,.06v0l0,.05,0,.07,0,.14a.58.58,0,0,0,0,.14s0,.08,0,.13v.05a1.94,1.94,0,0,1,0,.33v.38h0v.35a.88.88,0,0,1,0,.17.69.69,0,0,1,0,.22.12.12,0,0,1,0,.08v0l-.08.3,0,.14a.53.53,0,0,1,0,.15,1.66,1.66,0,0,1-.12.31s0,0,0,0l0,.05,0,.08,0,.09v0l0,.09-.1.2h0L124,142,124,142v0h0l0,0,0,.05-.09.14a1.75,1.75,0,0,1-.24.25l-.09.09,0,.07-.07.07h0a.78.78,0,0,1-.2.14l0,0h0a1.32,1.32,0,0,1-.26.18l-.14.08-.15.09-.07,0-.1,0-.12.06a1.25,1.25,0,0,1-.25.09l-.05,0a1.83,1.83,0,0,1-.32.09l0,0h0l-.09,0-.13,0-.06,0h-.08l-.17,0h-.21l-.08,0h0l-.3,0h-.1l-.1,0h-.09l-.32,0-.28-.06h0l-.3-.09-.06,0a1.66,1.66,0,0,1-.24-.11l-.12,0-.12-.06h0l0,0-.14-.09a.35.35,0,0,0-.09-.07.89.89,0,0,1-.19-.16l-.06,0,0,0a1.81,1.81,0,0,1-.23-.2l-.11-.11-.08-.09,0,0,0-.07-.05-.06,0-.05,0,0,0,0-.06-.07-.11-.15v0a.36.36,0,0,1,0-.11l0-.08,0-.08h0l0-.06,0-.1-.05-.11a1.63,1.63,0,0,1-.07-.22l0-.07V141l0-.07,0-.12v0a2.64,2.64,0,0,1,0-.29.06.06,0,0,1,0-.05l0-.11c0-.05,0-.1,0-.15a.92.92,0,0,0,0-.16s0-.09,0-.14v-.34l0-.08v-.1l0-.1v-.17a.54.54,0,0,1,0-.15,1.13,1.13,0,0,1,.08-.24v0a1.42,1.42,0,0,1,.13-.3,2.29,2.29,0,0,1,.14-.3l.16-.28h0c.08-.13.15-.22.2-.29l0,0,0-.05.11-.14,0,0,.07-.08.07-.07L118,137l.17-.14.07-.05,0,0,.25-.19,0,0,.05,0,0,0,.12-.07a.58.58,0,0,1,.14-.08Zm-4.36-6.39.3-.3a2.23,2.23,0,0,1,.23-.23l.09-.09.09-.11,0-.06,0,0a.33.33,0,0,1,.22-.08.39.39,0,0,1,.31.15l.11.13.06.06,0,.05.14.14.06,0,.14.15s0,.05,0,.05l.13.14a.66.66,0,0,1,.16.12l.07.07,0,.06.15.15.06,0,.07.07a.83.83,0,0,1,.12.16l.25.24.12.14.13.13.06.05a.39.39,0,0,1,.1.08,1,1,0,0,1,.13.16l.12.12.14.15a0,0,0,0,0,0,0h0l.14.19v0l0,0v0h0l.05.1,0,.1v0s0,.1.06.18v.08l0,0h0l0,.08,0,.07a1.36,1.36,0,0,1,0,.17.61.61,0,0,1,0,.15v.14a0,0,0,0,0,0,0,1,1,0,0,1,0,.34,2.42,2.42,0,0,1-.07.34.74.74,0,0,0,0,.14l-.06.1,0,0v0l0,.05a1.91,1.91,0,0,1-.16.27v0h0a1.43,1.43,0,0,1-.16.24,2.08,2.08,0,0,1-.21.25l-.25.22-.28.21v0h0l0,0h0l-.23.11-.16.07-.07,0-.07,0h-.07l-.22.07H116l-.25-.05h-.1l-.05,0-.06,0h0l-.15.55a1.44,1.44,0,0,0,0,.24v0l-.06.18a.29.29,0,0,0,0,.09.07.07,0,0,0,0,.05v.08l0,.14,0,.15,0,.1v0l-.06.25v.07l0,.2h0c0,.07,0,.11,0,.12l0,.06V138h0v.08l0,.13a2.72,2.72,0,0,1-.11.34c-.12.33-.25.5-.4.52s-.24-.09-.44-.29l-.24-.23,0-.06-.44-.43a.6.6,0,0,1-.19-.46l0,.09,0-.15s0,0,0,.06l.06-.25a.86.86,0,0,1,0-.15.31.31,0,0,0,0-.12h0a1,1,0,0,0,0-.25l0,0a.54.54,0,0,0,0-.11l0-.15h0l0-.1v-.08a.29.29,0,0,0,0-.1h0l.06-.19s0,0,0-.07v0c0-.07,0-.16,0-.25v0a.15.15,0,0,0,0-.07v-.08a.43.43,0,0,0,0-.11s0,0,0-.06v0a.84.84,0,0,1,0-.18.29.29,0,0,1,0-.09V135s0-.09,0-.15l0-.16,0-.06,0-.06,0-.11a.33.33,0,0,0,0-.25l-.1-.09s0,0,0-.06a.24.24,0,0,0-.37,0l0,0-.06.05-.24.22-.12.13,0,.05-.31.3-.06,0,0,.06-.15.16-.15.13-.38.38-.08.06-.14.14c-.16.17-.28.22-.36.14l-.12-.12a1.07,1.07,0,0,1-.13-.15l-.09-.1-.21-.21a.79.79,0,0,1-.15-.14l-.2-.2-.1-.08-.13-.13,0-.05a.19.19,0,0,1,0-.11.6.6,0,0,1,.24-.34l.26-.25.38-.38.08-.07.25-.24a.28.28,0,0,1,.06-.08l.19-.19.08-.07.25-.24a.18.18,0,0,1,0-.07l.39-.39a.64.64,0,0,1,.15-.13l.05-.06.08-.06.15-.14a1.33,1.33,0,0,1,.14-.19.77.77,0,0,1,.19-.15l.08-.08a.4.4,0,0,1,.12-.15l1.35-1.35A.64.64,0,0,1,114.63,129.89ZM104,129.67a.41.41,0,0,1,.2-.15l.11,0h.08l.1,0,.07,0,0,0h.07l.12,0,0,0h.05l.08,0h.23a.16.16,0,0,0,.08-.06.09.09,0,0,0,0-.09,1.62,1.62,0,0,1,0-.21c0-.05,0-.1,0-.17v-.75s0-.09,0-.15l0-.15,0-.15,0-.15v0l0,0a.58.58,0,0,1,0-.13l0-.06,0-.06v0l0-.12.06-.1v0l0,0a.15.15,0,0,1,0-.07l0-.11,0-.11v0l0,0,.06-.12,0-.07,0-.08.19-.25,0,0a1.53,1.53,0,0,1,.15-.23l.12-.13.12-.12.17-.14.06-.07h0l.12-.1.13-.1.12-.09.1-.07,0,0,0,0,.23-.14.06,0,.07,0,.17-.09.14-.06.15,0,.06,0,.06,0,.09,0h.15l0,0,.11,0,.11,0h0l.23,0h.06a.06.06,0,0,0,0,0h.51s0,0,.06,0a.06.06,0,0,0,.06,0H110l.11,0,.11,0,.06,0h.11l.23.06.08,0,.08,0,0,0h.08l.28.13h0l0,0a1.17,1.17,0,0,1,.25.13l.11,0,.13.09.11.08.08.08,0,0v0a2.11,2.11,0,0,1,.26.22l.07.07.05.06,0,0,.06.07,0,.06.08.08.08.09a.72.72,0,0,1,.11.19l0,0,0,0v0l0,.1a1.19,1.19,0,0,1,.08.16v0l0,.06,0,.07,0,.06,0,.06,0,.06a.57.57,0,0,1,.11.22h0v0l0,.11v.09a.24.24,0,0,0,0,.07v0a.41.41,0,0,0,0,.07,2,2,0,0,1,0,.22v.14l0,.14v.14c0,.08,0,.14,0,.18a1,1,0,0,1,0,.27v.05l0,.14,0,.16v0a.81.81,0,0,0,0,.11l0,.09,0,.08c0,.1-.06.2-.1.31l-.06.15,0,.07,0,.06-.07.14-.06.15h0a.69.69,0,0,1-.06.13.75.75,0,0,1-.08.14v0h0a1.71,1.71,0,0,0-.11.14l-.08.12-.11.13-.09.13c-.07.09-.15.17-.22.25l-.12.12-.14.12-.25.19-.12.09-.14.1a1.93,1.93,0,0,1-.29.17l-.18.09-.1,0h0l-.28.11-.19.06-.09,0h0l-.31.07h0l-.1,0-.18,0h-.31l-.08,0h0a.8.8,0,0,1,.19.32l0,.07,0,.05,0,.07a.18.18,0,0,1,0,.06l0,0V133l0,.06,0,.15a.41.41,0,0,1,0,.31.35.35,0,0,1-.21.2l-.14.05h-.07l0,0h0l-.06,0-.23.1h0a2.8,2.8,0,0,1-.31.09l-.16,0-.18,0h-.35a2.08,2.08,0,0,1-.39-.05,1.24,1.24,0,0,1-.36-.13,2.94,2.94,0,0,1-.31-.16l-.2-.17-.05-.05,0-.06a1.08,1.08,0,0,1-.18-.25l0,0,0,0a.64.64,0,0,1-.08-.14l0-.07,0-.05h0s0,0,0-.06,0,0,0-.07a1.22,1.22,0,0,1-.1-.2v0l-.08-.3,0-.33v-.26l0-.06,0-.06a.2.2,0,0,0,0-.05v-.06l0-.08,0-.09a.62.62,0,0,0-.09-.12l0,0-.05,0h-.44l-.15,0a.35.35,0,0,1-.37-.1.74.74,0,0,1-.08-.13l0-.07,0-.06,0,0h0a.36.36,0,0,0,0-.13l0-.12v0l0-.1a.81.81,0,0,1,0-.15h0v0l0,0,0,0a.42.42,0,0,1,0-.1A.33.33,0,0,1,104,129.67Z"/><path class="a" d="M118.75,139.44l0,.05,0,.08a.19.19,0,0,0,0,.08v0s0,0,0,.06v.37a.84.84,0,0,0,0,.1l0,.11v0a.89.89,0,0,1,0,.11v.11l0,.1,0,.11.06.08.05.1.07.09.07.09,0,0,.08.08,0,.07.13.13s0,0,0,0a1.77,1.77,0,0,0,.17.13l.2.1.09,0,.06,0,0,0h0l.17,0H121l.16-.06.13,0,.1,0h.06l0,0,.1-.06.11-.06.06,0h0l0,0,.16-.11.18-.18.14-.17.07-.07,0-.07.06-.06,0-.09,0-.06,0-.07,0-.1.06-.11h0a.25.25,0,0,1,0-.07l0,0v-.05a.31.31,0,0,0,0-.08h0a1.15,1.15,0,0,0,0-.2c0-.12,0-.2,0-.24v0a.67.67,0,0,0,0-.2l0-.1v-.25l0-.1,0,0v0l0-.19-.06-.11,0-.08,0,0-.13-.13v0l-.07-.09-.07-.07-.18-.16-.19-.13-.08,0-.1-.06h0a.25.25,0,0,0-.16,0h0l0,0-.2-.06h-.46a.06.06,0,0,0-.06,0h-.08l-.1,0h-.08l-.07,0h-.08l0,0h-.1l-.07,0-.11,0,0,0-.06,0v0l-.19.09-.12.09-.09.07h0l-.18.16,0,0,0,.05,0,0,0,.05-.14.14s0,0,0,0l0,.08,0,.07,0,0v0a.92.92,0,0,0-.1.2l0,.11,0,.07,0,.08Z"/><path class="a" d="M115,132.72l.29.3.06.07a.27.27,0,0,0,.07.06l.24.24a.27.27,0,0,0,.06.07l.07.06.11.1,0,0,.1.07h0l.15.08h0l0,0,.08,0h.06l.1,0h0l0,0,0,0v0h0l.25-.25v0l0,0,0-.07v0l0-.09a.23.23,0,0,0,0-.14V133l0,0,0,0,0,0h0l0-.06,0-.06,0-.05-.06-.05-.23-.23a.23.23,0,0,0-.07-.08l-.07-.06-.41-.41-.06-.08-.05,0a.19.19,0,0,0-.31,0l0,0a.1.1,0,0,0,0,0l-.21.21a.21.21,0,0,0,0,.06l-.23.22a.23.23,0,0,0,0,.34S115,132.7,115,132.72Z"/><path class="a" d="M108.23,132.23l-.25-.08,0,0-.05,0h0l-.23-.07,0,0s0,0,0,0a.06.06,0,0,0-.08,0,.06.06,0,0,0,0,.07h0v0h0a.09.09,0,0,0,0,0l.13.13H108l.07,0h.09l.18-.05-.12,0Z"/><path class="a" d="M107.21,128.67v.08a.07.07,0,0,1,0,.05l0,.12,0,.1v0l0,.08,0,.08v0l0,.08.06.1.06.1.06.09,0,0a.41.41,0,0,0,.12.14.88.88,0,0,0,.17.15v0l.09.07.08.06.09,0,.09,0,.08,0h.07l.08,0,.14,0,.06,0h.48l.11,0h.24l.12,0h0l.23-.07h0l.06,0,.13-.08,0,0h0l.16-.08.1-.07.09-.05.13-.14,0-.06s0,0,.07-.06l.11-.11.08-.09,0,0,0-.05h0a1.39,1.39,0,0,0,.11-.21.64.64,0,0,0,.11-.22l.05-.11,0-.11,0-.06v-.08a.26.26,0,0,0,0-.07v-.07s0,0,0,0v-.16a.5.5,0,0,1,0-.15v-.14l0-.07v-.1l0-.22,0-.12-.05-.11,0-.1a.19.19,0,0,0,0-.1s0,0,0,0l0,0,0,0,0,0-.09-.12,0,0a0,0,0,0,0,0,0l-.07-.06,0,0,0,0h0l0,0-.09-.07-.07-.06-.14-.07s0,0-.07,0l0,0h-.1l-.07,0H110l-.13,0h0a.67.67,0,0,0-.23,0,.74.74,0,0,0-.21,0h-.27l-.23,0-.22.08-.11,0-.12.05-.08,0-.08,0,0,0h0l-.09.07-.11.07-.09.09-.07.09-.09.09-.07.08h0l-.15.2h0v0l-.06.09-.06.08,0,.11,0,.11,0,.08,0,.09,0,.07v0l0,.16v0a.87.87,0,0,0,0,.23v0a.67.67,0,0,0,0,.2v0h0S107.2,128.64,107.21,128.67Z"/></svg>